# Faceted Ghost Matter deposit; model units are blocks
mtllib ghost_matter.mtl
o Crystal_0
usemtl blue
v 0.29358468 0.18447511 0.27248413
vt 0 1
v 0.24187600 0.18865030 0.30263011
vt 1 1
v 0.21981795 0.00800614 0.27309490
vt 1 0
v 0.25704820 0.00500000 0.25138979
vt 0 0
f 1/1 2/2 3/3 4/4
usemtl blue
v 0.28817487 0.22625104 0.26936078
vt 0 1
v 0.24680793 0.22959120 0.29347756
vt 1 1
v 0.24187600 0.18865030 0.30263011
vt 1 0
v 0.29358468 0.18447511 0.27248413
vt 0 0
f 5/5 6/6 7/7 8/8
usemtl pale
v 0.26047725 0.27646407 0.26237622
vt 0 1
v 0.24680793 0.22959120 0.29347756
vt 1 1
v 0.28817487 0.22625104 0.26936078
vt 1 0
f 9/9 10/10 11/11
usemtl dark
v 0.25704820 0.00500000 0.25138979
vt 0 1
v 0.21981795 0.00800614 0.27309490
vt 1 1
v 0.22000000 0.01101228 0.23000000
vt 1 0
f 12/12 13/13 14/14
usemtl dark
v 0.24187600 0.18865030 0.30263011
vt 0 1
v 0.19042016 0.19700069 0.27292207
vt 1 1
v 0.18276975 0.01401842 0.25170510
vt 1 0
v 0.21981795 0.00800614 0.27309490
vt 0 0
f 15/15 16/16 17/17 18/18
usemtl dark
v 0.24680793 0.22959120 0.29347756
vt 0 1
v 0.20564325 0.23627151 0.26971113
vt 1 1
v 0.19042016 0.19700069 0.27292207
vt 1 0
v 0.24187600 0.18865030 0.30263011
vt 0 0
f 19/19 20/20 21/21 22/22
usemtl glint
v 0.26047725 0.27646407 0.26237622
vt 0 1
v 0.20564325 0.23627151 0.26971113
vt 1 1
v 0.24680793 0.22959120 0.29347756
vt 1 0
f 23/23 24/24 25/25
usemtl dark
v 0.21981795 0.00800614 0.27309490
vt 0 1
v 0.18276975 0.01401842 0.25170510
vt 1 1
v 0.22000000 0.01101228 0.23000000
vt 1 0
f 26/26 27/27 28/28
usemtl pale
v 0.19042016 0.19700069 0.27292207
vt 0 1
v 0.19067300 0.20117588 0.21306805
vt 1 1
v 0.18295180 0.01702456 0.20861021
vt 1 0
v 0.18276975 0.01401842 0.25170510
vt 0 0
f 29/29 30/30 31/31 32/32
usemtl glint
v 0.20564325 0.23627151 0.26971113
vt 0 1
v 0.20584553 0.23961166 0.22182791
vt 1 1
v 0.19067300 0.20117588 0.21306805
vt 1 0
v 0.19042016 0.19700069 0.27292207
vt 0 0
f 33/33 34/34 35/35 36/36
usemtl pale
v 0.26047725 0.27646407 0.26237622
vt 0 1
v 0.20584553 0.23961166 0.22182791
vt 1 1
v 0.20564325 0.23627151 0.26971113
vt 1 0
f 37/37 38/38 39/39
usemtl dark
v 0.18276975 0.01401842 0.25170510
vt 0 1
v 0.18295180 0.01702456 0.20861021
vt 1 1
v 0.22000000 0.01101228 0.23000000
vt 1 0
f 40/40 41/41 42/42
usemtl blue
v 0.19067300 0.20117588 0.21306805
vt 0 1
v 0.24238168 0.19700069 0.18292207
vt 1 1
v 0.22018205 0.01401842 0.18690510
vt 1 0
v 0.18295180 0.01702456 0.20861021
vt 0 0
f 43/43 44/44 45/45 46/46
usemtl blue
v 0.20584553 0.23961166 0.22182791
vt 0 1
v 0.24721247 0.23627151 0.19771113
vt 1 1
v 0.24238168 0.19700069 0.18292207
vt 1 0
v 0.19067300 0.20117588 0.21306805
vt 0 0
f 47/47 48/48 49/49 50/50
usemtl pale
v 0.26047725 0.27646407 0.26237622
vt 0 1
v 0.24721247 0.23627151 0.19771113
vt 1 1
v 0.20584553 0.23961166 0.22182791
vt 1 0
f 51/51 52/52 53/53
usemtl dark
v 0.18295180 0.01702456 0.20861021
vt 0 1
v 0.22018205 0.01401842 0.18690510
vt 1 1
v 0.22000000 0.01101228 0.23000000
vt 1 0
f 54/54 55/55 56/56
usemtl dark
v 0.24238168 0.19700069 0.18292207
vt 0 1
v 0.29383752 0.18865030 0.21263011
vt 1 1
v 0.25723025 0.00800614 0.20829490
vt 1 0
v 0.22018205 0.01401842 0.18690510
vt 0 0
f 57/57 58/58 59/59 60/60
usemtl dark
v 0.24721247 0.23627151 0.19771113
vt 0 1
v 0.28837714 0.22959120 0.22147756
vt 1 1
v 0.29383752 0.18865030 0.21263011
vt 1 0
v 0.24238168 0.19700069 0.18292207
vt 0 0
f 61/61 62/62 63/63 64/64
usemtl pale
v 0.26047725 0.27646407 0.26237622
vt 0 1
v 0.28837714 0.22959120 0.22147756
vt 1 1
v 0.24721247 0.23627151 0.19771113
vt 1 0
f 65/65 66/66 67/67
usemtl dark
v 0.22018205 0.01401842 0.18690510
vt 0 1
v 0.25723025 0.00800614 0.20829490
vt 1 1
v 0.22000000 0.01101228 0.23000000
vt 1 0
f 68/68 69/69 70/70
usemtl blue
v 0.29383752 0.18865030 0.21263011
vt 0 1
v 0.29358468 0.18447511 0.27248413
vt 1 1
v 0.25704820 0.00500000 0.25138979
vt 1 0
v 0.25723025 0.00800614 0.20829490
vt 0 0
f 71/71 72/72 73/73 74/74
usemtl blue
v 0.28837714 0.22959120 0.22147756
vt 0 1
v 0.28817487 0.22625104 0.26936078
vt 1 1
v 0.29358468 0.18447511 0.27248413
vt 1 0
v 0.29383752 0.18865030 0.21263011
vt 0 0
f 75/75 76/76 77/77 78/78
usemtl pale
v 0.26047725 0.27646407 0.26237622
vt 0 1
v 0.28817487 0.22625104 0.26936078
vt 1 1
v 0.28837714 0.22959120 0.22147756
vt 1 0
f 79/79 80/80 81/81
usemtl dark
v 0.25723025 0.00800614 0.20829490
vt 0 1
v 0.25704820 0.00500000 0.25138979
vt 1 1
v 0.22000000 0.01101228 0.23000000
vt 1 0
f 82/82 83/83 84/84
o Crystal_1
usemtl blue
v 0.69201876 0.25725312 0.26192828
vt 0 1
v 0.64482246 0.24966434 0.20675655
vt 1 1
v 0.64843492 0.02139176 0.24858730
vt 1 0
v 0.68241625 0.02685568 0.28831095
vt 0 0
f 85/85 86/86 87/87 88/88
usemtl blue
v 0.70052974 0.30410313 0.23854455
vt 0 1
v 0.66277271 0.29803211 0.19440716
vt 1 1
v 0.64482246 0.24966434 0.20675655
vt 1 0
v 0.69201876 0.25725312 0.26192828
vt 0 0
f 89/89 90/90 91/91 92/92
usemtl pale
v 0.70964268 0.35198886 0.18576005
vt 0 1
v 0.66277271 0.29803211 0.19440716
vt 1 1
v 0.70052974 0.30410313 0.23854455
vt 1 0
f 93/93 94/94 95/95
usemtl dark
v 0.68241625 0.02685568 0.28831095
vt 0 1
v 0.64843492 0.02139176 0.24858730
vt 1 1
v 0.70000000 0.01592784 0.24000000
vt 1 0
f 96/96 97/97 98/98
usemtl dark
v 0.64482246 0.24966434 0.20675655
vt 0 1
v 0.66924433 0.23448679 0.13965801
vt 1 1
v 0.66601867 0.01046392 0.20027635
vt 1 0
v 0.64843492 0.02139176 0.24858730
vt 0 0
f 99/99 100/100 101/101 102/102
usemtl dark
v 0.66277271 0.29803211 0.19440716
vt 0 1
v 0.68231020 0.28589007 0.14072833
vt 1 1
v 0.66924433 0.23448679 0.13965801
vt 1 0
v 0.64482246 0.24966434 0.20675655
vt 0 0
f 103/103 104/104 105/105 106/106
usemtl glint
v 0.70964268 0.35198886 0.18576005
vt 0 1
v 0.68231020 0.28589007 0.14072833
vt 1 1
v 0.66277271 0.29803211 0.19440716
vt 1 0
f 107/107 108/108 109/109
usemtl dark
v 0.64843492 0.02139176 0.24858730
vt 0 1
v 0.66601867 0.01046392 0.20027635
vt 1 1
v 0.70000000 0.01592784 0.24000000
vt 1 0
f 110/110 111/111 112/112
usemtl pale
v 0.66924433 0.23448679 0.13965801
vt 0 1
v 0.74086250 0.22689801 0.12773120
vt 1 1
v 0.71758375 0.00500000 0.19168905
vt 1 0
v 0.66601867 0.01046392 0.20027635
vt 0 0
f 113/113 114/114 115/115 116/116
usemtl glint
v 0.68231020 0.28589007 0.14072833
vt 0 1
v 0.73960474 0.27981905 0.13118688
vt 1 1
v 0.74086250 0.22689801 0.12773120
vt 1 0
v 0.66924433 0.23448679 0.13965801
vt 0 0
f 117/117 118/118 119/119 120/120
usemtl pale
v 0.70964268 0.35198886 0.18576005
vt 0 1
v 0.73960474 0.27981905 0.13118688
vt 1 1
v 0.68231020 0.28589007 0.14072833
vt 1 0
f 121/121 122/122 123/123
usemtl dark
v 0.66601867 0.01046392 0.20027635
vt 0 1
v 0.71758375 0.00500000 0.19168905
vt 1 1
v 0.70000000 0.01592784 0.24000000
vt 1 0
f 124/124 125/125 126/126
usemtl blue
v 0.74086250 0.22689801 0.12773120
vt 0 1
v 0.78805880 0.23448679 0.18290294
vt 1 1
v 0.75156508 0.01046392 0.23141270
vt 1 0
v 0.71758375 0.00500000 0.19168905
vt 0 0
f 127/127 128/128 129/129 130/130
usemtl blue
v 0.73960474 0.27981905 0.13118688
vt 0 1
v 0.77736177 0.28589007 0.17532427
vt 1 1
v 0.78805880 0.23448679 0.18290294
vt 1 0
v 0.74086250 0.22689801 0.12773120
vt 0 0
f 131/131 132/132 133/133 134/134
usemtl pale
v 0.70964268 0.35198886 0.18576005
vt 0 1
v 0.77736177 0.28589007 0.17532427
vt 1 1
v 0.73960474 0.27981905 0.13118688
vt 1 0
f 135/135 136/136 137/137
usemtl dark
v 0.71758375 0.00500000 0.19168905
vt 0 1
v 0.75156508 0.01046392 0.23141270
vt 1 1
v 0.70000000 0.01592784 0.24000000
vt 1 0
f 138/138 139/139 140/140
usemtl dark
v 0.78805880 0.23448679 0.18290294
vt 0 1
v 0.76363692 0.24966434 0.25000148
vt 1 1
v 0.73398133 0.02139176 0.27972365
vt 1 0
v 0.75156508 0.01046392 0.23141270
vt 0 0
f 141/141 142/142 143/143 144/144
usemtl dark
v 0.77736177 0.28589007 0.17532427
vt 0 1
v 0.75782427 0.29803211 0.22900310
vt 1 1
v 0.76363692 0.24966434 0.25000148
vt 1 0
v 0.78805880 0.23448679 0.18290294
vt 0 0
f 145/145 146/146 147/147 148/148
usemtl pale
v 0.70964268 0.35198886 0.18576005
vt 0 1
v 0.75782427 0.29803211 0.22900310
vt 1 1
v 0.77736177 0.28589007 0.17532427
vt 1 0
f 149/149 150/150 151/151
usemtl dark
v 0.75156508 0.01046392 0.23141270
vt 0 1
v 0.73398133 0.02139176 0.27972365
vt 1 1
v 0.70000000 0.01592784 0.24000000
vt 1 0
f 152/152 153/153 154/154
usemtl blue
v 0.76363692 0.24966434 0.25000148
vt 0 1
v 0.69201876 0.25725312 0.26192828
vt 1 1
v 0.68241625 0.02685568 0.28831095
vt 1 0
v 0.73398133 0.02139176 0.27972365
vt 0 0
f 155/155 156/156 157/157 158/158
usemtl blue
v 0.75782427 0.29803211 0.22900310
vt 0 1
v 0.70052974 0.30410313 0.23854455
vt 1 1
v 0.69201876 0.25725312 0.26192828
vt 1 0
v 0.76363692 0.24966434 0.25000148
vt 0 0
f 159/159 160/160 161/161 162/162
usemtl pale
v 0.70964268 0.35198886 0.18576005
vt 0 1
v 0.70052974 0.30410313 0.23854455
vt 1 1
v 0.75782427 0.29803211 0.22900310
vt 1 0
f 163/163 164/164 165/165
usemtl dark
v 0.73398133 0.02139176 0.27972365
vt 0 1
v 0.68241625 0.02685568 0.28831095
vt 1 1
v 0.70000000 0.01592784 0.24000000
vt 1 0
f 166/166 167/167 168/168
o Crystal_2
usemtl blue
v 0.42136352 0.13599356 0.40820223
vt 0 1
v 0.48737550 0.14593420 0.39525609
vt 1 1
v 0.50743287 0.01215726 0.44481206
vt 1 0
v 0.45990425 0.00500000 0.45413328
vt 0 0
f 169/169 170/170 171/171 172/172
usemtl blue
v 0.42380357 0.17009342 0.41111016
vt 0 1
v 0.47661315 0.17804593 0.40075325
vt 1 1
v 0.48737550 0.14593420 0.39525609
vt 1 0
v 0.42136352 0.13599356 0.40820223
vt 0 0
f 173/173 174/174 175/175 176/176
usemtl pale
v 0.44769200 0.21556582 0.42582669
vt 0 1
v 0.47661315 0.17804593 0.40075325
vt 1 1
v 0.42380357 0.17009342 0.41111016
vt 1 0
f 177/177 178/178 179/179
usemtl dark
v 0.45990425 0.00500000 0.45413328
vt 0 1
v 0.50743287 0.01215726 0.44481206
vt 1 1
v 0.49000000 0.01931452 0.49000000
vt 1 0
f 180/180 181/181 182/182
usemtl dark
v 0.48737550 0.14593420 0.39525609
vt 0 1
v 0.52917516 0.16581548 0.44507098
vt 1 1
v 0.53752862 0.02647178 0.48067878
vt 1 0
v 0.50743287 0.01215726 0.44481206
vt 0 0
f 183/183 184/184 185/185 186/186
usemtl dark
v 0.47661315 0.17804593 0.40075325
vt 0 1
v 0.51005288 0.19395095 0.44060517
vt 1 1
v 0.52917516 0.16581548 0.44507098
vt 1 0
v 0.48737550 0.14593420 0.39525609
vt 0 0
f 187/187 188/188 189/189 190/190
usemtl glint
v 0.44769200 0.21556582 0.42582669
vt 0 1
v 0.51005288 0.19395095 0.44060517
vt 1 1
v 0.47661315 0.17804593 0.40075325
vt 1 0
f 191/191 192/192 193/193
usemtl dark
v 0.50743287 0.01215726 0.44481206
vt 0 1
v 0.53752862 0.02647178 0.48067878
vt 1 1
v 0.49000000 0.01931452 0.49000000
vt 1 0
f 194/194 195/195 196/196
usemtl pale
v 0.52917516 0.16581548 0.44507098
vt 0 1
v 0.50496284 0.17575611 0.50783202
vt 1 1
v 0.52009575 0.03362904 0.52586672
vt 1 0
v 0.53752862 0.02647178 0.48067878
vt 0 0
f 197/197 198/198 199/199 200/200
usemtl glint
v 0.51005288 0.19395095 0.44060517
vt 0 1
v 0.49068302 0.20190346 0.49081399
vt 1 1
v 0.50496284 0.17575611 0.50783202
vt 1 0
v 0.52917516 0.16581548 0.44507098
vt 0 0
f 201/201 202/202 203/203 204/204
usemtl pale
v 0.44769200 0.21556582 0.42582669
vt 0 1
v 0.49068302 0.20190346 0.49081399
vt 1 1
v 0.51005288 0.19395095 0.44060517
vt 1 0
f 205/205 206/206 207/207
usemtl dark
v 0.53752862 0.02647178 0.48067878
vt 0 1
v 0.52009575 0.03362904 0.52586672
vt 1 1
v 0.49000000 0.01931452 0.49000000
vt 1 0
f 208/208 209/209 210/210
usemtl blue
v 0.50496284 0.17575611 0.50783202
vt 0 1
v 0.43895086 0.16581548 0.52077816
vt 1 1
v 0.47256713 0.02647178 0.53518794
vt 1 0
v 0.52009575 0.03362904 0.52586672
vt 0 0
f 211/211 212/212 213/213 214/214
usemtl blue
v 0.49068302 0.20190346 0.49081399
vt 0 1
v 0.43787344 0.19395095 0.50117090
vt 1 1
v 0.43895086 0.16581548 0.52077816
vt 1 0
v 0.50496284 0.17575611 0.50783202
vt 0 0
f 215/215 216/216 217/217 218/218
usemtl pale
v 0.44769200 0.21556582 0.42582669
vt 0 1
v 0.43787344 0.19395095 0.50117090
vt 1 1
v 0.49068302 0.20190346 0.49081399
vt 1 0
f 219/219 220/220 221/221
usemtl dark
v 0.52009575 0.03362904 0.52586672
vt 0 1
v 0.47256713 0.02647178 0.53518794
vt 1 1
v 0.49000000 0.01931452 0.49000000
vt 1 0
f 222/222 223/223 224/224
usemtl dark
v 0.43895086 0.16581548 0.52077816
vt 0 1
v 0.39715120 0.14593420 0.47096327
vt 1 1
v 0.44247138 0.01215726 0.49932122
vt 1 0
v 0.47256713 0.02647178 0.53518794
vt 0 0
f 225/225 226/226 227/227 228/228
usemtl dark
v 0.43787344 0.19395095 0.50117090
vt 0 1
v 0.40443371 0.17804593 0.46131899
vt 1 1
v 0.39715120 0.14593420 0.47096327
vt 1 0
v 0.43895086 0.16581548 0.52077816
vt 0 0
f 229/229 230/230 231/231 232/232
usemtl pale
v 0.44769200 0.21556582 0.42582669
vt 0 1
v 0.40443371 0.17804593 0.46131899
vt 1 1
v 0.43787344 0.19395095 0.50117090
vt 1 0
f 233/233 234/234 235/235
usemtl dark
v 0.47256713 0.02647178 0.53518794
vt 0 1
v 0.44247138 0.01215726 0.49932122
vt 1 1
v 0.49000000 0.01931452 0.49000000
vt 1 0
f 236/236 237/237 238/238
usemtl blue
v 0.39715120 0.14593420 0.47096327
vt 0 1
v 0.42136352 0.13599356 0.40820223
vt 1 1
v 0.45990425 0.00500000 0.45413328
vt 1 0
v 0.44247138 0.01215726 0.49932122
vt 0 0
f 239/239 240/240 241/241 242/242
usemtl blue
v 0.40443371 0.17804593 0.46131899
vt 0 1
v 0.42380357 0.17009342 0.41111016
vt 1 1
v 0.42136352 0.13599356 0.40820223
vt 1 0
v 0.39715120 0.14593420 0.47096327
vt 0 0
f 243/243 244/244 245/245 246/246
usemtl pale
v 0.44769200 0.21556582 0.42582669
vt 0 1
v 0.42380357 0.17009342 0.41111016
vt 1 1
v 0.40443371 0.17804593 0.46131899
vt 1 0
f 247/247 248/248 249/249
usemtl dark
v 0.44247138 0.01215726 0.49932122
vt 0 1
v 0.45990425 0.00500000 0.45413328
vt 1 1
v 0.49000000 0.01931452 0.49000000
vt 1 0
f 250/250 251/251 252/252
o Crystal_3
usemtl blue
v 0.21857474 0.01395294 0.85534256
vt 0 1
v 0.16780500 0.04196479 0.85667310
vt 1 1
v 0.16532263 0.02516853 0.76160207
vt 1 0
v 0.20187684 0.00500000 0.76064408
vt 0 0
f 253/253 254/254 255/255 256/256
usemtl blue
v 0.22157575 0.03059288 0.87236215
vt 0 1
v 0.18095996 0.05300236 0.87342658
vt 1 1
v 0.16780500 0.04196479 0.85667310
vt 1 0
v 0.21857474 0.01395294 0.85534256
vt 0 0
f 257/257 258/258 259/259 260/260
usemtl pale
v 0.21665647 0.06868628 0.88788467
vt 0 1
v 0.18095996 0.05300236 0.87342658
vt 1 1
v 0.22157575 0.03059288 0.87236215
vt 1 0
f 261/261 262/262 263/263
usemtl dark
v 0.20187684 0.00500000 0.76064408
vt 0 1
v 0.16532263 0.02516853 0.76160207
vt 1 1
v 0.20000000 0.04533706 0.75000000
vt 1 0
f 264/264 265/265 266/266
usemtl dark
v 0.16780500 0.04196479 0.85667310
vt 0 1
v 0.16519828 0.09798848 0.84188965
vt 1 1
v 0.16344579 0.06550559 0.75095798
vt 1 0
v 0.16532263 0.02516853 0.76160207
vt 0 0
f 267/267 268/268 269/269 270/270
usemtl dark
v 0.18095996 0.05300236 0.87342658
vt 0 1
v 0.17887458 0.09782131 0.86159982
vt 1 1
v 0.16519828 0.09798848 0.84188965
vt 1 0
v 0.16780500 0.04196479 0.85667310
vt 0 0
f 271/271 272/272 273/273 274/274
usemtl glint
v 0.21665647 0.06868628 0.88788467
vt 0 1
v 0.17887458 0.09782131 0.86159982
vt 1 1
v 0.18095996 0.05300236 0.87342658
vt 1 0
f 275/275 276/276 277/277
usemtl dark
v 0.16532263 0.02516853 0.76160207
vt 0 1
v 0.16344579 0.06550559 0.75095798
vt 1 1
v 0.20000000 0.04533706 0.75000000
vt 1 0
f 278/278 279/279 280/280
usemtl pale
v 0.16519828 0.09798848 0.84188965
vt 0 1
v 0.21336130 0.12600033 0.82577567
vt 1 1
v 0.19812316 0.08567413 0.73935592
vt 1 0
v 0.16344579 0.06550559 0.75095798
vt 0 0
f 281/281 282/282 283/283 284/284
usemtl glint
v 0.17887458 0.09782131 0.86159982
vt 0 1
v 0.21740500 0.12023079 0.84870864
vt 1 1
v 0.21336130 0.12600033 0.82577567
vt 1 0
v 0.16519828 0.09798848 0.84188965
vt 0 0
f 285/285 286/286 287/287 288/288
usemtl pale
v 0.21665647 0.06868628 0.88788467
vt 0 1
v 0.21740500 0.12023079 0.84870864
vt 1 1
v 0.17887458 0.09782131 0.86159982
vt 1 0
f 289/289 290/290 291/291
usemtl dark
v 0.16344579 0.06550559 0.75095798
vt 0 1
v 0.19812316 0.08567413 0.73935592
vt 1 1
v 0.20000000 0.04533706 0.75000000
vt 1 0
f 292/292 293/293 294/294
usemtl blue
v 0.21336130 0.12600033 0.82577567
vt 0 1
v 0.26413103 0.09798848 0.82444514
vt 1 1
v 0.23467737 0.06550559 0.73839793
vt 1 0
v 0.19812316 0.08567413 0.73935592
vt 0 0
f 295/295 296/296 297/297 298/298
usemtl blue
v 0.21740500 0.12023079 0.84870864
vt 0 1
v 0.25802078 0.09782131 0.84764421
vt 1 1
v 0.26413103 0.09798848 0.82444514
vt 1 0
v 0.21336130 0.12600033 0.82577567
vt 0 0
f 299/299 300/300 301/301 302/302
usemtl pale
v 0.21665647 0.06868628 0.88788467
vt 0 1
v 0.25802078 0.09782131 0.84764421
vt 1 1
v 0.21740500 0.12023079 0.84870864
vt 1 0
f 303/303 304/304 305/305
usemtl dark
v 0.19812316 0.08567413 0.73935592
vt 0 1
v 0.23467737 0.06550559 0.73839793
vt 1 1
v 0.20000000 0.04533706 0.75000000
vt 1 0
f 306/306 307/307 308/308
usemtl dark
v 0.26413103 0.09798848 0.82444514
vt 0 1
v 0.26673775 0.04196479 0.83922858
vt 1 1
v 0.23655421 0.02516853 0.74904202
vt 1 0
v 0.23467737 0.06550559 0.73839793
vt 0 0
f 309/309 310/310 311/311 312/312
usemtl dark
v 0.25802078 0.09782131 0.84764421
vt 0 1
v 0.26010616 0.05300236 0.85947097
vt 1 1
v 0.26673775 0.04196479 0.83922858
vt 1 0
v 0.26413103 0.09798848 0.82444514
vt 0 0
f 313/313 314/314 315/315 316/316
usemtl pale
v 0.21665647 0.06868628 0.88788467
vt 0 1
v 0.26010616 0.05300236 0.85947097
vt 1 1
v 0.25802078 0.09782131 0.84764421
vt 1 0
f 317/317 318/318 319/319
usemtl dark
v 0.23467737 0.06550559 0.73839793
vt 0 1
v 0.23655421 0.02516853 0.74904202
vt 1 1
v 0.20000000 0.04533706 0.75000000
vt 1 0
f 320/320 321/321 322/322
usemtl blue
v 0.26673775 0.04196479 0.83922858
vt 0 1
v 0.21857474 0.01395294 0.85534256
vt 1 1
v 0.20187684 0.00500000 0.76064408
vt 1 0
v 0.23655421 0.02516853 0.74904202
vt 0 0
f 323/323 324/324 325/325 326/326
usemtl blue
v 0.26010616 0.05300236 0.85947097
vt 0 1
v 0.22157575 0.03059288 0.87236215
vt 1 1
v 0.21857474 0.01395294 0.85534256
vt 1 0
v 0.26673775 0.04196479 0.83922858
vt 0 0
f 327/327 328/328 329/329 330/330
usemtl pale
v 0.21665647 0.06868628 0.88788467
vt 0 1
v 0.22157575 0.03059288 0.87236215
vt 1 1
v 0.26010616 0.05300236 0.85947097
vt 1 0
f 331/331 332/332 333/333
usemtl dark
v 0.23655421 0.02516853 0.74904202
vt 0 1
v 0.20187684 0.00500000 0.76064408
vt 1 1
v 0.20000000 0.04533706 0.75000000
vt 1 0
f 334/334 335/335 336/336
o Crystal_4
usemtl blue
v 0.68225667 0.03710327 0.65543157
vt 0 1
v 0.73038521 0.06517867 0.63060386
vt 1 1
v 0.79362173 0.02521429 0.72897803
vt 1 0
v 0.75896918 0.00500000 0.74685398
vt 0 0
f 337/337 338/338 339/339 340/340
usemtl blue
v 0.66934518 0.05888317 0.64004425
vt 0 1
v 0.70784801 0.08134349 0.62018208
vt 1 1
v 0.73038521 0.06517867 0.63060386
vt 1 0
v 0.68225667 0.03710327 0.65543157
vt 0 0
f 341/341 342/342 343/343 344/344
usemtl pale
v 0.66604696 0.10284549 0.62377670
vt 0 1
v 0.70784801 0.08134349 0.62018208
vt 1 1
v 0.66934518 0.05888317 0.64004425
vt 1 0
f 345/345 346/346 347/347
usemtl dark
v 0.75896918 0.00500000 0.74685398
vt 0 1
v 0.79362173 0.02521429 0.72897803
vt 1 1
v 0.77000000 0.04542857 0.76000000
vt 1 0
f 348/348 349/349 350/350
usemtl dark
v 0.73038521 0.06517867 0.63060386
vt 0 1
v 0.74570580 0.12132946 0.64886222
vt 1 1
v 0.80465255 0.06564286 0.74212405
vt 1 0
v 0.79362173 0.02521429 0.72897803
vt 0 0
f 351/351 352/352 353/353 354/354
usemtl dark
v 0.70784801 0.08134349 0.62018208
vt 0 1
v 0.72010448 0.12626412 0.63478877
vt 1 1
v 0.74570580 0.12132946 0.64886222
vt 1 0
v 0.73038521 0.06517867 0.63060386
vt 0 0
f 355/355 356/356 357/357 358/358
usemtl glint
v 0.66604696 0.10284549 0.62377670
vt 0 1
v 0.72010448 0.12626412 0.63478877
vt 1 1
v 0.70784801 0.08134349 0.62018208
vt 1 0
f 359/359 360/360 361/361
usemtl dark
v 0.79362173 0.02521429 0.72897803
vt 0 1
v 0.80465255 0.06564286 0.74212405
vt 1 1
v 0.77000000 0.04542857 0.76000000
vt 1 0
f 362/362 363/363 364/364
usemtl pale
v 0.74570580 0.12132946 0.64886222
vt 0 1
v 0.71289784 0.14940486 0.69194829
vt 1 1
v 0.78103082 0.08585715 0.77314602
vt 1 0
v 0.80465255 0.06564286 0.74212405
vt 0 0
f 365/365 366/366 367/367 368/368
usemtl glint
v 0.72010448 0.12626412 0.63478877
vt 0 1
v 0.69385811 0.14872444 0.66925763
vt 1 1
v 0.71289784 0.14940486 0.69194829
vt 1 0
v 0.74570580 0.12132946 0.64886222
vt 0 0
f 369/369 370/370 371/371 372/372
usemtl pale
v 0.66604696 0.10284549 0.62377670
vt 0 1
v 0.69385811 0.14872444 0.66925763
vt 1 1
v 0.72010448 0.12626412 0.63478877
vt 1 0
f 373/373 374/374 375/375
usemtl dark
v 0.80465255 0.06564286 0.74212405
vt 0 1
v 0.78103082 0.08585715 0.77314602
vt 1 1
v 0.77000000 0.04542857 0.76000000
vt 1 0
f 376/376 377/377 378/378
usemtl blue
v 0.71289784 0.14940486 0.69194829
vt 0 1
v 0.66476929 0.12132946 0.71677601
vt 1 1
v 0.74637827 0.06564286 0.79102197
vt 1 0
v 0.78103082 0.08585715 0.77314602
vt 0 0
f 379/379 380/380 381/381 382/382
usemtl blue
v 0.69385811 0.14872444 0.66925763
vt 0 1
v 0.65535528 0.12626412 0.68911980
vt 1 1
v 0.66476929 0.12132946 0.71677601
vt 1 0
v 0.71289784 0.14940486 0.69194829
vt 0 0
f 383/383 384/384 385/385 386/386
usemtl pale
v 0.66604696 0.10284549 0.62377670
vt 0 1
v 0.65535528 0.12626412 0.68911980
vt 1 1
v 0.69385811 0.14872444 0.66925763
vt 1 0
f 387/387 388/388 389/389
usemtl dark
v 0.78103082 0.08585715 0.77314602
vt 0 1
v 0.74637827 0.06564286 0.79102197
vt 1 1
v 0.77000000 0.04542857 0.76000000
vt 1 0
f 390/390 391/391 392/392
usemtl dark
v 0.66476929 0.12132946 0.71677601
vt 0 1
v 0.64944871 0.06517867 0.69851764
vt 1 1
v 0.73534745 0.02521429 0.77787595
vt 1 0
v 0.74637827 0.06564286 0.79102197
vt 0 0
f 393/393 394/394 395/395 396/396
usemtl dark
v 0.65535528 0.12626412 0.68911980
vt 0 1
v 0.64309881 0.08134349 0.67451312
vt 1 1
v 0.64944871 0.06517867 0.69851764
vt 1 0
v 0.66476929 0.12132946 0.71677601
vt 0 0
f 397/397 398/398 399/399 400/400
usemtl pale
v 0.66604696 0.10284549 0.62377670
vt 0 1
v 0.64309881 0.08134349 0.67451312
vt 1 1
v 0.65535528 0.12626412 0.68911980
vt 1 0
f 401/401 402/402 403/403
usemtl dark
v 0.74637827 0.06564286 0.79102197
vt 0 1
v 0.73534745 0.02521429 0.77787595
vt 1 1
v 0.77000000 0.04542857 0.76000000
vt 1 0
f 404/404 405/405 406/406
usemtl blue
v 0.64944871 0.06517867 0.69851764
vt 0 1
v 0.68225667 0.03710327 0.65543157
vt 1 1
v 0.75896918 0.00500000 0.74685398
vt 1 0
v 0.73534745 0.02521429 0.77787595
vt 0 0
f 407/407 408/408 409/409 410/410
usemtl blue
v 0.64309881 0.08134349 0.67451312
vt 0 1
v 0.66934518 0.05888317 0.64004425
vt 1 1
v 0.68225667 0.03710327 0.65543157
vt 1 0
v 0.64944871 0.06517867 0.69851764
vt 0 0
f 411/411 412/412 413/413 414/414
usemtl pale
v 0.66604696 0.10284549 0.62377670
vt 0 1
v 0.66934518 0.05888317 0.64004425
vt 1 1
v 0.64309881 0.08134349 0.67451312
vt 1 0
f 415/415 416/416 417/417
usemtl dark
v 0.73534745 0.02521429 0.77787595
vt 0 1
v 0.75896918 0.00500000 0.74685398
vt 1 1
v 0.77000000 0.04542857 0.76000000
vt 1 0
f 418/418 419/419 420/420
o Crystal_5
usemtl blue
v 0.43644619 0.17755394 0.87723880
vt 0 1
v 0.39975389 0.17457488 0.83372098
vt 1 1
v 0.40962194 0.01143477 0.84702089
vt 1 0
v 0.43604039 0.01357970 0.87835372
vt 0 0
f 421/421 422/422 423/423 424/424
usemtl blue
v 0.44161089 0.21216511 0.86304890
vt 0 1
v 0.41225705 0.20978186 0.82823464
vt 1 1
v 0.39975389 0.17457488 0.83372098
vt 1 0
v 0.43644619 0.17755394 0.87723880
vt 0 0
f 425/425 426/426 427/427 428/428
usemtl pale
v 0.44715776 0.24934547 0.82614360
vt 0 1
v 0.41225705 0.20978186 0.82823464
vt 1 1
v 0.44161089 0.21216511 0.86304890
vt 1 0
f 429/429 430/430 431/431
usemtl dark
v 0.43604039 0.01357970 0.87835372
vt 0 1
v 0.40962194 0.01143477 0.84702089
vt 1 1
v 0.45000000 0.00928985 0.84000000
vt 1 0
f 432/432 433/433 434/434
usemtl dark
v 0.39975389 0.17457488 0.83372098
vt 0 1
v 0.41914225 0.16861676 0.78045192
vt 1 1
v 0.42358155 0.00714492 0.80866717
vt 1 0
v 0.40962194 0.01143477 0.84702089
vt 0 0
f 435/435 436/436 437/437 438/438
usemtl dark
v 0.41225705 0.20978186 0.82823464
vt 0 1
v 0.42776773 0.20501536 0.78561940
vt 1 1
v 0.41914225 0.16861676 0.78045192
vt 1 0
v 0.39975389 0.17457488 0.83372098
vt 0 0
f 439/439 440/440 441/441 442/442
usemtl glint
v 0.44715776 0.24934547 0.82614360
vt 0 1
v 0.42776773 0.20501536 0.78561940
vt 1 1
v 0.41225705 0.20978186 0.82823464
vt 1 0
f 443/443 444/444 445/445
usemtl dark
v 0.40962194 0.01143477 0.84702089
vt 0 1
v 0.42358155 0.00714492 0.80866717
vt 1 1
v 0.45000000 0.00928985 0.84000000
vt 1 0
f 446/446 447/447 448/448
usemtl pale
v 0.41914225 0.16861676 0.78045192
vt 0 1
v 0.47522289 0.16563770 0.77070068
vt 1 1
v 0.46395961 0.00500000 0.80164628
vt 1 0
v 0.42358155 0.00714492 0.80866717
vt 0 0
f 449/449 450/450 451/451 452/452
usemtl glint
v 0.42776773 0.20501536 0.78561940
vt 0 1
v 0.47263225 0.20263211 0.77781841
vt 1 1
v 0.47522289 0.16563770 0.77070068
vt 1 0
v 0.41914225 0.16861676 0.78045192
vt 0 0
f 453/453 454/454 455/455 456/456
usemtl pale
v 0.44715776 0.24934547 0.82614360
vt 0 1
v 0.47263225 0.20263211 0.77781841
vt 1 1
v 0.42776773 0.20501536 0.78561940
vt 1 0
f 457/457 458/458 459/459
usemtl dark
v 0.42358155 0.00714492 0.80866717
vt 0 1
v 0.46395961 0.00500000 0.80164628
vt 1 1
v 0.45000000 0.00928985 0.84000000
vt 1 0
f 460/460 461/461 462/462
usemtl blue
v 0.47522289 0.16563770 0.77070068
vt 0 1
v 0.51191518 0.16861676 0.81421851
vt 1 1
v 0.49037806 0.00714492 0.83297911
vt 1 0
v 0.46395961 0.00500000 0.80164628
vt 0 0
f 463/463 464/464 465/465 466/466
usemtl blue
v 0.47263225 0.20263211 0.77781841
vt 0 1
v 0.50198608 0.20501536 0.81263267
vt 1 1
v 0.51191518 0.16861676 0.81421851
vt 1 0
v 0.47522289 0.16563770 0.77070068
vt 0 0
f 467/467 468/468 469/469 470/470
usemtl pale
v 0.44715776 0.24934547 0.82614360
vt 0 1
v 0.50198608 0.20501536 0.81263267
vt 1 1
v 0.47263225 0.20263211 0.77781841
vt 1 0
f 471/471 472/472 473/473
usemtl dark
v 0.46395961 0.00500000 0.80164628
vt 0 1
v 0.49037806 0.00714492 0.83297911
vt 1 1
v 0.45000000 0.00928985 0.84000000
vt 1 0
f 474/474 475/475 476/476
usemtl dark
v 0.51191518 0.16861676 0.81421851
vt 0 1
v 0.49252683 0.17457488 0.86748756
vt 1 1
v 0.47641845 0.01143477 0.87133283
vt 1 0
v 0.49037806 0.00714492 0.83297911
vt 0 0
f 477/477 478/478 479/479 480/480
usemtl dark
v 0.50198608 0.20501536 0.81263267
vt 0 1
v 0.48647540 0.20978186 0.85524791
vt 1 1
v 0.49252683 0.17457488 0.86748756
vt 1 0
v 0.51191518 0.16861676 0.81421851
vt 0 0
f 481/481 482/482 483/483 484/484
usemtl pale
v 0.44715776 0.24934547 0.82614360
vt 0 1
v 0.48647540 0.20978186 0.85524791
vt 1 1
v 0.50198608 0.20501536 0.81263267
vt 1 0
f 485/485 486/486 487/487
usemtl dark
v 0.49037806 0.00714492 0.83297911
vt 0 1
v 0.47641845 0.01143477 0.87133283
vt 1 1
v 0.45000000 0.00928985 0.84000000
vt 1 0
f 488/488 489/489 490/490
usemtl blue
v 0.49252683 0.17457488 0.86748756
vt 0 1
v 0.43644619 0.17755394 0.87723880
vt 1 1
v 0.43604039 0.01357970 0.87835372
vt 1 0
v 0.47641845 0.01143477 0.87133283
vt 0 0
f 491/491 492/492 493/493 494/494
usemtl blue
v 0.48647540 0.20978186 0.85524791
vt 0 1
v 0.44161089 0.21216511 0.86304890
vt 1 1
v 0.43644619 0.17755394 0.87723880
vt 1 0
v 0.49252683 0.17457488 0.86748756
vt 0 0
f 495/495 496/496 497/497 498/498
usemtl pale
v 0.44715776 0.24934547 0.82614360
vt 0 1
v 0.44161089 0.21216511 0.86304890
vt 1 1
v 0.48647540 0.20978186 0.85524791
vt 1 0
f 499/499 500/500 501/501
usemtl dark
v 0.47641845 0.01143477 0.87133283
vt 0 1
v 0.43604039 0.01357970 0.87835372
vt 1 1
v 0.45000000 0.00928985 0.84000000
vt 1 0
f 502/502 503/503 504/504
o Crystal_6
usemtl blue
v 0.91608247 0.06707861 0.46452216
vt 0 1
v 0.91520416 0.07979667 0.51079828
vt 1 1
v 0.86593018 0.01415700 0.52093248
vt 1 0
v 0.86656256 0.00500000 0.48761367
vt 0 0
f 505/505 506/506 507/507 508/508
usemtl blue
v 0.91734884 0.08743070 0.46393164
vt 0 1
v 0.91664619 0.09760515 0.50095254
vt 1 1
v 0.91520416 0.07979667 0.51079828
vt 1 0
v 0.91608247 0.06707861 0.46452216
vt 0 0
f 509/509 510/510 511/511 512/512
usemtl pale
v 0.90875479 0.11922947 0.47482419
vt 0 1
v 0.91664619 0.09760515 0.50095254
vt 1 1
v 0.91734884 0.08743070 0.46393164
vt 1 0
f 513/513 514/514 515/515
usemtl dark
v 0.86656256 0.00500000 0.48761367
vt 0 1
v 0.86593018 0.01415700 0.52093248
vt 1 1
v 0.84000000 0.02331401 0.50000000
vt 1 0
f 516/516 517/517 518/518
usemtl dark
v 0.91520416 0.07979667 0.51079828
vt 0 1
v 0.87831172 0.10523280 0.52800151
vt 1 1
v 0.83936762 0.03247101 0.53331881
vt 1 0
v 0.86593018 0.01415700 0.52093248
vt 0 0
f 519/519 520/520 521/521 522/522
usemtl dark
v 0.91664619 0.09760515 0.50095254
vt 0 1
v 0.88713224 0.11795405 0.51471512
vt 1 1
v 0.87831172 0.10523280 0.52800151
vt 1 0
v 0.91520416 0.07979667 0.51079828
vt 0 0
f 523/523 524/524 525/525 526/526
usemtl glint
v 0.90875479 0.11922947 0.47482419
vt 0 1
v 0.88713224 0.11795405 0.51471512
vt 1 1
v 0.91664619 0.09760515 0.50095254
vt 1 0
f 527/527 528/528 529/529
usemtl dark
v 0.86593018 0.01415700 0.52093248
vt 0 1
v 0.83936762 0.03247101 0.53331881
vt 1 1
v 0.84000000 0.02331401 0.50000000
vt 1 0
f 530/530 531/531 532/532
usemtl pale
v 0.87831172 0.10523280 0.52800151
vt 0 1
v 0.84229758 0.11795086 0.49892862
vt 1 1
v 0.81343744 0.04162802 0.51238633
vt 1 0
v 0.83936762 0.03247101 0.53331881
vt 0 0
f 533/533 534/534 535/535 536/536
usemtl glint
v 0.88713224 0.11795405 0.51471512
vt 0 1
v 0.85832093 0.12812850 0.49145681
vt 1 1
v 0.84229758 0.11795086 0.49892862
vt 1 0
v 0.87831172 0.10523280 0.52800151
vt 0 0
f 537/537 538/538 539/539 540/540
usemtl pale
v 0.90875479 0.11922947 0.47482419
vt 0 1
v 0.85832093 0.12812850 0.49145681
vt 1 1
v 0.88713224 0.11795405 0.51471512
vt 1 0
f 541/541 542/542 543/543
usemtl dark
v 0.83936762 0.03247101 0.53331881
vt 0 1
v 0.81343744 0.04162802 0.51238633
vt 1 1
v 0.84000000 0.02331401 0.50000000
vt 1 0
f 544/544 545/545 546/546
usemtl blue
v 0.84229758 0.11795086 0.49892862
vt 0 1
v 0.84317589 0.10523280 0.45265250
vt 1 1
v 0.81406982 0.03247101 0.47906752
vt 1 0
v 0.81343744 0.04162802 0.51238633
vt 0 0
f 547/547 548/548 549/549 550/550
usemtl blue
v 0.85832093 0.12812850 0.49145681
vt 0 1
v 0.85902358 0.11795405 0.45443591
vt 1 1
v 0.84317589 0.10523280 0.45265250
vt 1 0
v 0.84229758 0.11795086 0.49892862
vt 0 0
f 551/551 552/552 553/553 554/554
usemtl pale
v 0.90875479 0.11922947 0.47482419
vt 0 1
v 0.85902358 0.11795405 0.45443591
vt 1 1
v 0.85832093 0.12812850 0.49145681
vt 1 0
f 555/555 556/556 557/557
usemtl dark
v 0.81343744 0.04162802 0.51238633
vt 0 1
v 0.81406982 0.03247101 0.47906752
vt 1 1
v 0.84000000 0.02331401 0.50000000
vt 1 0
f 558/558 559/559 560/560
usemtl dark
v 0.84317589 0.10523280 0.45265250
vt 0 1
v 0.88006834 0.07979667 0.43544927
vt 1 1
v 0.84063238 0.01415700 0.46668119
vt 1 0
v 0.81406982 0.03247101 0.47906752
vt 0 0
f 561/561 562/562 563/563 564/564
usemtl dark
v 0.85902358 0.11795405 0.45443591
vt 0 1
v 0.88853754 0.09760515 0.44067333
vt 1 1
v 0.88006834 0.07979667 0.43544927
vt 1 0
v 0.84317589 0.10523280 0.45265250
vt 0 0
f 565/565 566/566 567/567 568/568
usemtl pale
v 0.90875479 0.11922947 0.47482419
vt 0 1
v 0.88853754 0.09760515 0.44067333
vt 1 1
v 0.85902358 0.11795405 0.45443591
vt 1 0
f 569/569 570/570 571/571
usemtl dark
v 0.81406982 0.03247101 0.47906752
vt 0 1
v 0.84063238 0.01415700 0.46668119
vt 1 1
v 0.84000000 0.02331401 0.50000000
vt 1 0
f 572/572 573/573 574/574
usemtl blue
v 0.88006834 0.07979667 0.43544927
vt 0 1
v 0.91608247 0.06707861 0.46452216
vt 1 1
v 0.86656256 0.00500000 0.48761367
vt 1 0
v 0.84063238 0.01415700 0.46668119
vt 0 0
f 575/575 576/576 577/577 578/578
usemtl blue
v 0.88853754 0.09760515 0.44067333
vt 0 1
v 0.91734884 0.08743070 0.46393164
vt 1 1
v 0.91608247 0.06707861 0.46452216
vt 1 0
v 0.88006834 0.07979667 0.43544927
vt 0 0
f 579/579 580/580 581/581 582/582
usemtl pale
v 0.90875479 0.11922947 0.47482419
vt 0 1
v 0.91734884 0.08743070 0.46393164
vt 1 1
v 0.88853754 0.09760515 0.44067333
vt 1 0
f 583/583 584/584 585/585
usemtl dark
v 0.84063238 0.01415700 0.46668119
vt 0 1
v 0.86656256 0.00500000 0.48761367
vt 1 1
v 0.84000000 0.02331401 0.50000000
vt 1 0
f 586/586 587/587 588/588
