# Gravity Crystal v1 -- model units are blocks
mtllib gravity_crystal.mtl
o Mounting_shoe
usemtl mount
v 0.75000000 0.00000000 0.31250000
vt 0.75000000 0.00000000
v 0.25000000 0.00000000 0.31250000
vt 0.25000000 0.00000000
v 0.25000000 0.06250000 0.31250000
vt 0.25000000 0.06250000
v 0.75000000 0.06250000 0.31250000
vt 0.75000000 0.06250000
f 1/1 2/2 3/3 4/4
usemtl mount
v 0.25000000 0.00000000 0.68750000
vt 0.75000000 0.00000000
v 0.75000000 0.00000000 0.68750000
vt 0.25000000 0.00000000
v 0.75000000 0.06250000 0.68750000
vt 0.25000000 0.06250000
v 0.25000000 0.06250000 0.68750000
vt 0.75000000 0.06250000
f 5/5 6/6 7/7 8/8
usemtl mount
v 0.25000000 0.00000000 0.31250000
vt 0.68750000 0.00000000
v 0.25000000 0.00000000 0.68750000
vt 0.31250000 0.00000000
v 0.25000000 0.06250000 0.68750000
vt 0.31250000 0.06250000
v 0.25000000 0.06250000 0.31250000
vt 0.68750000 0.06250000
f 9/9 10/10 11/11 12/12
usemtl mount
v 0.75000000 0.00000000 0.68750000
vt 0.68750000 0.00000000
v 0.75000000 0.00000000 0.31250000
vt 0.31250000 0.00000000
v 0.75000000 0.06250000 0.31250000
vt 0.31250000 0.06250000
v 0.75000000 0.06250000 0.68750000
vt 0.68750000 0.06250000
f 13/13 14/14 15/15 16/16
usemtl mount
v 0.25000000 0.06250000 0.31250000
vt 0.75000000 0.31250000
v 0.25000000 0.06250000 0.68750000
vt 0.25000000 0.31250000
v 0.75000000 0.06250000 0.68750000
vt 0.25000000 0.68750000
v 0.75000000 0.06250000 0.31250000
vt 0.75000000 0.68750000
f 17/17 18/18 19/19 20/20
usemtl mount
v 0.25000000 0.00000000 0.68750000
vt 0.75000000 0.31250000
v 0.25000000 0.00000000 0.31250000
vt 0.25000000 0.31250000
v 0.75000000 0.00000000 0.31250000
vt 0.25000000 0.68750000
v 0.75000000 0.00000000 0.68750000
vt 0.75000000 0.68750000
f 21/21 22/22 23/23 24/24
o Shoe_inset
usemtl trim
v 0.68750000 0.06250000 0.37500000
vt 0.68750000 0.06250000
v 0.31250000 0.06250000 0.37500000
vt 0.31250000 0.06250000
v 0.31250000 0.08750000 0.37500000
vt 0.31250000 0.08750000
v 0.68750000 0.08750000 0.37500000
vt 0.68750000 0.08750000
f 25/25 26/26 27/27 28/28
usemtl trim
v 0.31250000 0.06250000 0.62500000
vt 0.68750000 0.06250000
v 0.68750000 0.06250000 0.62500000
vt 0.31250000 0.06250000
v 0.68750000 0.08750000 0.62500000
vt 0.31250000 0.08750000
v 0.31250000 0.08750000 0.62500000
vt 0.68750000 0.08750000
f 29/29 30/30 31/31 32/32
usemtl trim
v 0.31250000 0.06250000 0.37500000
vt 0.62500000 0.06250000
v 0.31250000 0.06250000 0.62500000
vt 0.37500000 0.06250000
v 0.31250000 0.08750000 0.62500000
vt 0.37500000 0.08750000
v 0.31250000 0.08750000 0.37500000
vt 0.62500000 0.08750000
f 33/33 34/34 35/35 36/36
usemtl trim
v 0.68750000 0.06250000 0.62500000
vt 0.62500000 0.06250000
v 0.68750000 0.06250000 0.37500000
vt 0.37500000 0.06250000
v 0.68750000 0.08750000 0.37500000
vt 0.37500000 0.08750000
v 0.68750000 0.08750000 0.62500000
vt 0.62500000 0.08750000
f 37/37 38/38 39/39 40/40
usemtl trim
v 0.31250000 0.08750000 0.37500000
vt 0.68750000 0.37500000
v 0.31250000 0.08750000 0.62500000
vt 0.31250000 0.37500000
v 0.68750000 0.08750000 0.62500000
vt 0.31250000 0.62500000
v 0.68750000 0.08750000 0.37500000
vt 0.68750000 0.62500000
f 41/41 42/42 43/43 44/44
usemtl trim
v 0.31250000 0.06250000 0.62500000
vt 0.68750000 0.37500000
v 0.31250000 0.06250000 0.37500000
vt 0.31250000 0.37500000
v 0.68750000 0.06250000 0.37500000
vt 0.31250000 0.62500000
v 0.68750000 0.06250000 0.62500000
vt 0.68750000 0.62500000
f 45/45 46/46 47/47 48/48
o Rear_support
usemtl mount
v 0.55625000 0.06250000 0.65000000
vt 0.55625000 0.06250000
v 0.44375000 0.06250000 0.65000000
vt 0.44375000 0.06250000
v 0.44375000 0.41250000 0.65000000
vt 0.44375000 0.41250000
v 0.55625000 0.41250000 0.65000000
vt 0.55625000 0.41250000
f 49/49 50/50 51/51 52/52
usemtl mount
v 0.44375000 0.06250000 0.71250000
vt 0.55625000 0.06250000
v 0.55625000 0.06250000 0.71250000
vt 0.44375000 0.06250000
v 0.55625000 0.41250000 0.71250000
vt 0.44375000 0.41250000
v 0.44375000 0.41250000 0.71250000
vt 0.55625000 0.41250000
f 53/53 54/54 55/55 56/56
usemtl mount
v 0.44375000 0.06250000 0.65000000
vt 0.71250000 0.06250000
v 0.44375000 0.06250000 0.71250000
vt 0.65000000 0.06250000
v 0.44375000 0.41250000 0.71250000
vt 0.65000000 0.41250000
v 0.44375000 0.41250000 0.65000000
vt 0.71250000 0.41250000
f 57/57 58/58 59/59 60/60
usemtl mount
v 0.55625000 0.06250000 0.71250000
vt 0.35000000 0.06250000
v 0.55625000 0.06250000 0.65000000
vt 0.28750000 0.06250000
v 0.55625000 0.41250000 0.65000000
vt 0.28750000 0.41250000
v 0.55625000 0.41250000 0.71250000
vt 0.35000000 0.41250000
f 61/61 62/62 63/63 64/64
usemtl mount
v 0.44375000 0.41250000 0.65000000
vt 0.55625000 0.28750000
v 0.44375000 0.41250000 0.71250000
vt 0.44375000 0.28750000
v 0.55625000 0.41250000 0.71250000
vt 0.44375000 0.35000000
v 0.55625000 0.41250000 0.65000000
vt 0.55625000 0.35000000
f 65/65 66/66 67/67 68/68
usemtl mount
v 0.44375000 0.06250000 0.71250000
vt 0.55625000 0.65000000
v 0.44375000 0.06250000 0.65000000
vt 0.44375000 0.65000000
v 0.55625000 0.06250000 0.65000000
vt 0.44375000 0.71250000
v 0.55625000 0.06250000 0.71250000
vt 0.55625000 0.71250000
f 69/69 70/70 71/71 72/72
o Left_retaining_arm
usemtl mount
v 0.28750000 0.16250000 0.40625000
vt 0.78125000 0.16250000
v 0.21875000 0.16250000 0.40625000
vt 0.71250000 0.16250000
v 0.21875000 0.50000000 0.40625000
vt 0.71250000 0.50000000
v 0.28750000 0.50000000 0.40625000
vt 0.78125000 0.50000000
f 73/73 74/74 75/75 76/76
usemtl mount
v 0.21875000 0.16250000 0.48750000
vt 0.28750000 0.16250000
v 0.28750000 0.16250000 0.48750000
vt 0.21875000 0.16250000
v 0.28750000 0.50000000 0.48750000
vt 0.21875000 0.50000000
v 0.21875000 0.50000000 0.48750000
vt 0.28750000 0.50000000
f 77/77 78/78 79/79 80/80
usemtl mount
v 0.21875000 0.16250000 0.40625000
vt 0.48750000 0.16250000
v 0.21875000 0.16250000 0.48750000
vt 0.40625000 0.16250000
v 0.21875000 0.50000000 0.48750000
vt 0.40625000 0.50000000
v 0.21875000 0.50000000 0.40625000
vt 0.48750000 0.50000000
f 81/81 82/82 83/83 84/84
usemtl mount
v 0.28750000 0.16250000 0.48750000
vt 0.59375000 0.16250000
v 0.28750000 0.16250000 0.40625000
vt 0.51250000 0.16250000
v 0.28750000 0.50000000 0.40625000
vt 0.51250000 0.50000000
v 0.28750000 0.50000000 0.48750000
vt 0.59375000 0.50000000
f 85/85 86/86 87/87 88/88
usemtl mount
v 0.21875000 0.50000000 0.40625000
vt 0.28750000 0.51250000
v 0.21875000 0.50000000 0.48750000
vt 0.21875000 0.51250000
v 0.28750000 0.50000000 0.48750000
vt 0.21875000 0.59375000
v 0.28750000 0.50000000 0.40625000
vt 0.28750000 0.59375000
f 89/89 90/90 91/91 92/92
usemtl mount
v 0.21875000 0.16250000 0.48750000
vt 0.28750000 0.40625000
v 0.21875000 0.16250000 0.40625000
vt 0.21875000 0.40625000
v 0.28750000 0.16250000 0.40625000
vt 0.21875000 0.48750000
v 0.28750000 0.16250000 0.48750000
vt 0.28750000 0.48750000
f 93/93 94/94 95/95 96/96
o Right_retaining_arm
usemtl mount
v 0.78125000 0.16250000 0.40625000
vt 0.28750000 0.16250000
v 0.71250000 0.16250000 0.40625000
vt 0.21875000 0.16250000
v 0.71250000 0.50000000 0.40625000
vt 0.21875000 0.50000000
v 0.78125000 0.50000000 0.40625000
vt 0.28750000 0.50000000
f 97/97 98/98 99/99 100/100
usemtl mount
v 0.71250000 0.16250000 0.48750000
vt 0.78125000 0.16250000
v 0.78125000 0.16250000 0.48750000
vt 0.71250000 0.16250000
v 0.78125000 0.50000000 0.48750000
vt 0.71250000 0.50000000
v 0.71250000 0.50000000 0.48750000
vt 0.78125000 0.50000000
f 101/101 102/102 103/103 104/104
usemtl mount
v 0.71250000 0.16250000 0.40625000
vt 0.48750000 0.16250000
v 0.71250000 0.16250000 0.48750000
vt 0.40625000 0.16250000
v 0.71250000 0.50000000 0.48750000
vt 0.40625000 0.50000000
v 0.71250000 0.50000000 0.40625000
vt 0.48750000 0.50000000
f 105/105 106/106 107/107 108/108
usemtl mount
v 0.78125000 0.16250000 0.48750000
vt 0.59375000 0.16250000
v 0.78125000 0.16250000 0.40625000
vt 0.51250000 0.16250000
v 0.78125000 0.50000000 0.40625000
vt 0.51250000 0.50000000
v 0.78125000 0.50000000 0.48750000
vt 0.59375000 0.50000000
f 109/109 110/110 111/111 112/112
usemtl mount
v 0.71250000 0.50000000 0.40625000
vt 0.78125000 0.51250000
v 0.71250000 0.50000000 0.48750000
vt 0.71250000 0.51250000
v 0.78125000 0.50000000 0.48750000
vt 0.71250000 0.59375000
v 0.78125000 0.50000000 0.40625000
vt 0.78125000 0.59375000
f 113/113 114/114 115/115 116/116
usemtl mount
v 0.71250000 0.16250000 0.48750000
vt 0.78125000 0.40625000
v 0.71250000 0.16250000 0.40625000
vt 0.71250000 0.40625000
v 0.78125000 0.16250000 0.40625000
vt 0.71250000 0.48750000
v 0.78125000 0.16250000 0.48750000
vt 0.78125000 0.48750000
f 117/117 118/118 119/119 120/120
o Left_arm_ledge
usemtl mount
v 0.28750000 0.29375000 0.25625000
vt 0.78125000 0.29375000
v 0.21875000 0.29375000 0.25625000
vt 0.71250000 0.29375000
v 0.21875000 0.37500000 0.25625000
vt 0.71250000 0.37500000
v 0.28750000 0.37500000 0.25625000
vt 0.78125000 0.37500000
f 121/121 122/122 123/123 124/124
usemtl mount
v 0.21875000 0.29375000 0.48750000
vt 0.28750000 0.29375000
v 0.28750000 0.29375000 0.48750000
vt 0.21875000 0.29375000
v 0.28750000 0.37500000 0.48750000
vt 0.21875000 0.37500000
v 0.21875000 0.37500000 0.48750000
vt 0.28750000 0.37500000
f 125/125 126/126 127/127 128/128
usemtl mount
v 0.21875000 0.29375000 0.25625000
vt 0.48750000 0.29375000
v 0.21875000 0.29375000 0.48750000
vt 0.25625000 0.29375000
v 0.21875000 0.37500000 0.48750000
vt 0.25625000 0.37500000
v 0.21875000 0.37500000 0.25625000
vt 0.48750000 0.37500000
f 129/129 130/130 131/131 132/132
usemtl mount
v 0.28750000 0.29375000 0.48750000
vt 0.74375000 0.29375000
v 0.28750000 0.29375000 0.25625000
vt 0.51250000 0.29375000
v 0.28750000 0.37500000 0.25625000
vt 0.51250000 0.37500000
v 0.28750000 0.37500000 0.48750000
vt 0.74375000 0.37500000
f 133/133 134/134 135/135 136/136
usemtl mount
v 0.21875000 0.37500000 0.25625000
vt 0.28750000 0.51250000
v 0.21875000 0.37500000 0.48750000
vt 0.21875000 0.51250000
v 0.28750000 0.37500000 0.48750000
vt 0.21875000 0.74375000
v 0.28750000 0.37500000 0.25625000
vt 0.28750000 0.74375000
f 137/137 138/138 139/139 140/140
usemtl mount
v 0.21875000 0.29375000 0.48750000
vt 0.28750000 0.25625000
v 0.21875000 0.29375000 0.25625000
vt 0.21875000 0.25625000
v 0.28750000 0.29375000 0.25625000
vt 0.21875000 0.48750000
v 0.28750000 0.29375000 0.48750000
vt 0.28750000 0.48750000
f 141/141 142/142 143/143 144/144
o Right_arm_ledge
usemtl mount
v 0.78125000 0.29375000 0.25625000
vt 0.28750000 0.29375000
v 0.71250000 0.29375000 0.25625000
vt 0.21875000 0.29375000
v 0.71250000 0.37500000 0.25625000
vt 0.21875000 0.37500000
v 0.78125000 0.37500000 0.25625000
vt 0.28750000 0.37500000
f 145/145 146/146 147/147 148/148
usemtl mount
v 0.71250000 0.29375000 0.48750000
vt 0.78125000 0.29375000
v 0.78125000 0.29375000 0.48750000
vt 0.71250000 0.29375000
v 0.78125000 0.37500000 0.48750000
vt 0.71250000 0.37500000
v 0.71250000 0.37500000 0.48750000
vt 0.78125000 0.37500000
f 149/149 150/150 151/151 152/152
usemtl mount
v 0.71250000 0.29375000 0.25625000
vt 0.48750000 0.29375000
v 0.71250000 0.29375000 0.48750000
vt 0.25625000 0.29375000
v 0.71250000 0.37500000 0.48750000
vt 0.25625000 0.37500000
v 0.71250000 0.37500000 0.25625000
vt 0.48750000 0.37500000
f 153/153 154/154 155/155 156/156
usemtl mount
v 0.78125000 0.29375000 0.48750000
vt 0.74375000 0.29375000
v 0.78125000 0.29375000 0.25625000
vt 0.51250000 0.29375000
v 0.78125000 0.37500000 0.25625000
vt 0.51250000 0.37500000
v 0.78125000 0.37500000 0.48750000
vt 0.74375000 0.37500000
f 157/157 158/158 159/159 160/160
usemtl mount
v 0.71250000 0.37500000 0.25625000
vt 0.78125000 0.51250000
v 0.71250000 0.37500000 0.48750000
vt 0.71250000 0.51250000
v 0.78125000 0.37500000 0.48750000
vt 0.71250000 0.74375000
v 0.78125000 0.37500000 0.25625000
vt 0.78125000 0.74375000
f 161/161 162/162 163/163 164/164
usemtl mount
v 0.71250000 0.29375000 0.48750000
vt 0.78125000 0.25625000
v 0.71250000 0.29375000 0.25625000
vt 0.71250000 0.25625000
v 0.78125000 0.29375000 0.25625000
vt 0.71250000 0.48750000
v 0.78125000 0.29375000 0.48750000
vt 0.78125000 0.48750000
f 165/165 166/166 167/167 168/168
o Front_retaining_bridge
usemtl mount
v 0.78125000 0.29375000 0.25625000
vt 0.78125000 0.29375000
v 0.21875000 0.29375000 0.25625000
vt 0.21875000 0.29375000
v 0.21875000 0.37500000 0.25625000
vt 0.21875000 0.37500000
v 0.78125000 0.37500000 0.25625000
vt 0.78125000 0.37500000
f 169/169 170/170 171/171 172/172
usemtl mount
v 0.21875000 0.29375000 0.31875000
vt 0.78125000 0.29375000
v 0.78125000 0.29375000 0.31875000
vt 0.21875000 0.29375000
v 0.78125000 0.37500000 0.31875000
vt 0.21875000 0.37500000
v 0.21875000 0.37500000 0.31875000
vt 0.78125000 0.37500000
f 173/173 174/174 175/175 176/176
usemtl mount
v 0.21875000 0.29375000 0.25625000
vt 0.31875000 0.29375000
v 0.21875000 0.29375000 0.31875000
vt 0.25625000 0.29375000
v 0.21875000 0.37500000 0.31875000
vt 0.25625000 0.37500000
v 0.21875000 0.37500000 0.25625000
vt 0.31875000 0.37500000
f 177/177 178/178 179/179 180/180
usemtl mount
v 0.78125000 0.29375000 0.31875000
vt 0.74375000 0.29375000
v 0.78125000 0.29375000 0.25625000
vt 0.68125000 0.29375000
v 0.78125000 0.37500000 0.25625000
vt 0.68125000 0.37500000
v 0.78125000 0.37500000 0.31875000
vt 0.74375000 0.37500000
f 181/181 182/182 183/183 184/184
usemtl mount
v 0.21875000 0.37500000 0.25625000
vt 0.78125000 0.68125000
v 0.21875000 0.37500000 0.31875000
vt 0.21875000 0.68125000
v 0.78125000 0.37500000 0.31875000
vt 0.21875000 0.74375000
v 0.78125000 0.37500000 0.25625000
vt 0.78125000 0.74375000
f 185/185 186/186 187/187 188/188
usemtl mount
v 0.21875000 0.29375000 0.31875000
vt 0.78125000 0.25625000
v 0.21875000 0.29375000 0.25625000
vt 0.21875000 0.25625000
v 0.78125000 0.29375000 0.25625000
vt 0.21875000 0.31875000
v 0.78125000 0.29375000 0.31875000
vt 0.78125000 0.31875000
f 189/189 190/190 191/191 192/192
o Nomai_bronze_trace
usemtl trim
v 0.73750000 0.34375000 0.25468750
vt 0.73750000 0.34375000
v 0.26250000 0.34375000 0.25468750
vt 0.26250000 0.34375000
v 0.26250000 0.35937500 0.25468750
vt 0.26250000 0.35937500
v 0.73750000 0.35937500 0.25468750
vt 0.73750000 0.35937500
f 193/193 194/194 195/195 196/196
usemtl trim
v 0.26250000 0.34375000 0.25625000
vt 0.73750000 0.34375000
v 0.73750000 0.34375000 0.25625000
vt 0.26250000 0.34375000
v 0.73750000 0.35937500 0.25625000
vt 0.26250000 0.35937500
v 0.26250000 0.35937500 0.25625000
vt 0.73750000 0.35937500
f 197/197 198/198 199/199 200/200
usemtl trim
v 0.26250000 0.34375000 0.25468750
vt 0.25625000 0.34375000
v 0.26250000 0.34375000 0.25625000
vt 0.25468750 0.34375000
v 0.26250000 0.35937500 0.25625000
vt 0.25468750 0.35937500
v 0.26250000 0.35937500 0.25468750
vt 0.25625000 0.35937500
f 201/201 202/202 203/203 204/204
usemtl trim
v 0.73750000 0.34375000 0.25625000
vt 0.74531250 0.34375000
v 0.73750000 0.34375000 0.25468750
vt 0.74375000 0.34375000
v 0.73750000 0.35937500 0.25468750
vt 0.74375000 0.35937500
v 0.73750000 0.35937500 0.25625000
vt 0.74531250 0.35937500
f 205/205 206/206 207/207 208/208
usemtl trim
v 0.26250000 0.35937500 0.25468750
vt 0.73750000 0.74375000
v 0.26250000 0.35937500 0.25625000
vt 0.26250000 0.74375000
v 0.73750000 0.35937500 0.25625000
vt 0.26250000 0.74531250
v 0.73750000 0.35937500 0.25468750
vt 0.73750000 0.74531250
f 209/209 210/210 211/211 212/212
usemtl trim
v 0.26250000 0.34375000 0.25625000
vt 0.73750000 0.25468750
v 0.26250000 0.34375000 0.25468750
vt 0.26250000 0.25468750
v 0.73750000 0.34375000 0.25468750
vt 0.26250000 0.25625000
v 0.73750000 0.34375000 0.25625000
vt 0.73750000 0.25625000
f 213/213 214/214 215/215 216/216
o Green_status_point
usemtl indicator
v 0.71250000 0.31250000 0.25250000
vt 0.31875000 0.31250000
v 0.68125000 0.31250000 0.25250000
vt 0.28750000 0.31250000
v 0.68125000 0.34375000 0.25250000
vt 0.28750000 0.34375000
v 0.71250000 0.34375000 0.25250000
vt 0.31875000 0.34375000
f 217/217 218/218 219/219 220/220
usemtl indicator
v 0.68125000 0.31250000 0.25468750
vt 0.71250000 0.31250000
v 0.71250000 0.31250000 0.25468750
vt 0.68125000 0.31250000
v 0.71250000 0.34375000 0.25468750
vt 0.68125000 0.34375000
v 0.68125000 0.34375000 0.25468750
vt 0.71250000 0.34375000
f 221/221 222/222 223/223 224/224
usemtl indicator
v 0.68125000 0.31250000 0.25250000
vt 0.25468750 0.31250000
v 0.68125000 0.31250000 0.25468750
vt 0.25250000 0.31250000
v 0.68125000 0.34375000 0.25468750
vt 0.25250000 0.34375000
v 0.68125000 0.34375000 0.25250000
vt 0.25468750 0.34375000
f 225/225 226/226 227/227 228/228
usemtl indicator
v 0.71250000 0.31250000 0.25468750
vt 0.74750000 0.31250000
v 0.71250000 0.31250000 0.25250000
vt 0.74531250 0.31250000
v 0.71250000 0.34375000 0.25250000
vt 0.74531250 0.34375000
v 0.71250000 0.34375000 0.25468750
vt 0.74750000 0.34375000
f 229/229 230/230 231/231 232/232
usemtl indicator
v 0.68125000 0.34375000 0.25250000
vt 0.71250000 0.74531250
v 0.68125000 0.34375000 0.25468750
vt 0.68125000 0.74531250
v 0.71250000 0.34375000 0.25468750
vt 0.68125000 0.74750000
v 0.71250000 0.34375000 0.25250000
vt 0.71250000 0.74750000
f 233/233 234/234 235/235 236/236
usemtl indicator
v 0.68125000 0.31250000 0.25468750
vt 0.71250000 0.25250000
v 0.68125000 0.31250000 0.25250000
vt 0.68125000 0.25250000
v 0.71250000 0.31250000 0.25250000
vt 0.68125000 0.25468750
v 0.71250000 0.31250000 0.25468750
vt 0.71250000 0.25468750
f 237/237 238/238 239/239 240/240
o Blue_violet_crystal
usemtl crystal
v 0.50000000 0.07500000 0.50000000
vt 0.06250000 0.07500000
v 0.60625000 0.25000000 0.50000000
vt 0.00000000 0.25000000
v 0.57513010 0.25000000 0.57513010
vt 0.12500000 0.25000000
f 241/241 242/242 243/243
usemtl crystal
v 0.67187500 0.50000000 0.50000000
vt 0.00000000 0.50000000
v 0.62153398 0.50000000 0.62153398
vt 0.12500000 0.50000000
v 0.57513010 0.25000000 0.57513010
vt 0.12500000 0.25000000
v 0.60625000 0.25000000 0.50000000
vt 0.00000000 0.25000000
f 244/244 245/245 246/246 247/247
usemtl crystal
v 0.62500000 0.70625000 0.50000000
vt 0.00000000 0.70625000
v 0.58838835 0.70625000 0.58838835
vt 0.12500000 0.70625000
v 0.62153398 0.50000000 0.62153398
vt 0.12500000 0.50000000
v 0.67187500 0.50000000 0.50000000
vt 0.00000000 0.50000000
f 248/248 249/249 250/250 251/251
usemtl crystal
v 0.50000000 0.93750000 0.50000000
vt 0.06250000 0.93750000
v 0.58838835 0.70625000 0.58838835
vt 0.12500000 0.70625000
v 0.62500000 0.70625000 0.50000000
vt 0.00000000 0.70625000
f 252/252 253/253 254/254
usemtl crystal
v 0.50000000 0.07500000 0.50000000
vt 0.18750000 0.07500000
v 0.57513010 0.25000000 0.57513010
vt 0.12500000 0.25000000
v 0.50000000 0.25000000 0.60625000
vt 0.25000000 0.25000000
f 255/255 256/256 257/257
usemtl crystal
v 0.62153398 0.50000000 0.62153398
vt 0.12500000 0.50000000
v 0.50000000 0.50000000 0.67187500
vt 0.25000000 0.50000000
v 0.50000000 0.25000000 0.60625000
vt 0.25000000 0.25000000
v 0.57513010 0.25000000 0.57513010
vt 0.12500000 0.25000000
f 258/258 259/259 260/260 261/261
usemtl crystal
v 0.58838835 0.70625000 0.58838835
vt 0.12500000 0.70625000
v 0.50000000 0.70625000 0.62500000
vt 0.25000000 0.70625000
v 0.50000000 0.50000000 0.67187500
vt 0.25000000 0.50000000
v 0.62153398 0.50000000 0.62153398
vt 0.12500000 0.50000000
f 262/262 263/263 264/264 265/265
usemtl crystal
v 0.50000000 0.93750000 0.50000000
vt 0.18750000 0.93750000
v 0.50000000 0.70625000 0.62500000
vt 0.25000000 0.70625000
v 0.58838835 0.70625000 0.58838835
vt 0.12500000 0.70625000
f 266/266 267/267 268/268
usemtl crystal
v 0.50000000 0.07500000 0.50000000
vt 0.31250000 0.07500000
v 0.50000000 0.25000000 0.60625000
vt 0.25000000 0.25000000
v 0.42486990 0.25000000 0.57513010
vt 0.37500000 0.25000000
f 269/269 270/270 271/271
usemtl crystal
v 0.50000000 0.50000000 0.67187500
vt 0.25000000 0.50000000
v 0.37846602 0.50000000 0.62153398
vt 0.37500000 0.50000000
v 0.42486990 0.25000000 0.57513010
vt 0.37500000 0.25000000
v 0.50000000 0.25000000 0.60625000
vt 0.25000000 0.25000000
f 272/272 273/273 274/274 275/275
usemtl crystal
v 0.50000000 0.70625000 0.62500000
vt 0.25000000 0.70625000
v 0.41161165 0.70625000 0.58838835
vt 0.37500000 0.70625000
v 0.37846602 0.50000000 0.62153398
vt 0.37500000 0.50000000
v 0.50000000 0.50000000 0.67187500
vt 0.25000000 0.50000000
f 276/276 277/277 278/278 279/279
usemtl crystal
v 0.50000000 0.93750000 0.50000000
vt 0.31250000 0.93750000
v 0.41161165 0.70625000 0.58838835
vt 0.37500000 0.70625000
v 0.50000000 0.70625000 0.62500000
vt 0.25000000 0.70625000
f 280/280 281/281 282/282
usemtl crystal
v 0.50000000 0.07500000 0.50000000
vt 0.43750000 0.07500000
v 0.42486990 0.25000000 0.57513010
vt 0.37500000 0.25000000
v 0.39375000 0.25000000 0.50000000
vt 0.50000000 0.25000000
f 283/283 284/284 285/285
usemtl crystal
v 0.37846602 0.50000000 0.62153398
vt 0.37500000 0.50000000
v 0.32812500 0.50000000 0.50000000
vt 0.50000000 0.50000000
v 0.39375000 0.25000000 0.50000000
vt 0.50000000 0.25000000
v 0.42486990 0.25000000 0.57513010
vt 0.37500000 0.25000000
f 286/286 287/287 288/288 289/289
usemtl crystal
v 0.41161165 0.70625000 0.58838835
vt 0.37500000 0.70625000
v 0.37500000 0.70625000 0.50000000
vt 0.50000000 0.70625000
v 0.32812500 0.50000000 0.50000000
vt 0.50000000 0.50000000
v 0.37846602 0.50000000 0.62153398
vt 0.37500000 0.50000000
f 290/290 291/291 292/292 293/293
usemtl crystal
v 0.50000000 0.93750000 0.50000000
vt 0.43750000 0.93750000
v 0.37500000 0.70625000 0.50000000
vt 0.50000000 0.70625000
v 0.41161165 0.70625000 0.58838835
vt 0.37500000 0.70625000
f 294/294 295/295 296/296
usemtl crystal
v 0.50000000 0.07500000 0.50000000
vt 0.56250000 0.07500000
v 0.39375000 0.25000000 0.50000000
vt 0.50000000 0.25000000
v 0.42486990 0.25000000 0.42486990
vt 0.62500000 0.25000000
f 297/297 298/298 299/299
usemtl crystal
v 0.32812500 0.50000000 0.50000000
vt 0.50000000 0.50000000
v 0.37846602 0.50000000 0.37846602
vt 0.62500000 0.50000000
v 0.42486990 0.25000000 0.42486990
vt 0.62500000 0.25000000
v 0.39375000 0.25000000 0.50000000
vt 0.50000000 0.25000000
f 300/300 301/301 302/302 303/303
usemtl crystal
v 0.37500000 0.70625000 0.50000000
vt 0.50000000 0.70625000
v 0.41161165 0.70625000 0.41161165
vt 0.62500000 0.70625000
v 0.37846602 0.50000000 0.37846602
vt 0.62500000 0.50000000
v 0.32812500 0.50000000 0.50000000
vt 0.50000000 0.50000000
f 304/304 305/305 306/306 307/307
usemtl crystal
v 0.50000000 0.93750000 0.50000000
vt 0.56250000 0.93750000
v 0.41161165 0.70625000 0.41161165
vt 0.62500000 0.70625000
v 0.37500000 0.70625000 0.50000000
vt 0.50000000 0.70625000
f 308/308 309/309 310/310
usemtl crystal
v 0.50000000 0.07500000 0.50000000
vt 0.68750000 0.07500000
v 0.42486990 0.25000000 0.42486990
vt 0.62500000 0.25000000
v 0.50000000 0.25000000 0.39375000
vt 0.75000000 0.25000000
f 311/311 312/312 313/313
usemtl crystal
v 0.37846602 0.50000000 0.37846602
vt 0.62500000 0.50000000
v 0.50000000 0.50000000 0.32812500
vt 0.75000000 0.50000000
v 0.50000000 0.25000000 0.39375000
vt 0.75000000 0.25000000
v 0.42486990 0.25000000 0.42486990
vt 0.62500000 0.25000000
f 314/314 315/315 316/316 317/317
usemtl crystal
v 0.41161165 0.70625000 0.41161165
vt 0.62500000 0.70625000
v 0.50000000 0.70625000 0.37500000
vt 0.75000000 0.70625000
v 0.50000000 0.50000000 0.32812500
vt 0.75000000 0.50000000
v 0.37846602 0.50000000 0.37846602
vt 0.62500000 0.50000000
f 318/318 319/319 320/320 321/321
usemtl crystal
v 0.50000000 0.93750000 0.50000000
vt 0.68750000 0.93750000
v 0.50000000 0.70625000 0.37500000
vt 0.75000000 0.70625000
v 0.41161165 0.70625000 0.41161165
vt 0.62500000 0.70625000
f 322/322 323/323 324/324
usemtl crystal
v 0.50000000 0.07500000 0.50000000
vt 0.81250000 0.07500000
v 0.50000000 0.25000000 0.39375000
vt 0.75000000 0.25000000
v 0.57513010 0.25000000 0.42486990
vt 0.87500000 0.25000000
f 325/325 326/326 327/327
usemtl crystal
v 0.50000000 0.50000000 0.32812500
vt 0.75000000 0.50000000
v 0.62153398 0.50000000 0.37846602
vt 0.87500000 0.50000000
v 0.57513010 0.25000000 0.42486990
vt 0.87500000 0.25000000
v 0.50000000 0.25000000 0.39375000
vt 0.75000000 0.25000000
f 328/328 329/329 330/330 331/331
usemtl crystal
v 0.50000000 0.70625000 0.37500000
vt 0.75000000 0.70625000
v 0.58838835 0.70625000 0.41161165
vt 0.87500000 0.70625000
v 0.62153398 0.50000000 0.37846602
vt 0.87500000 0.50000000
v 0.50000000 0.50000000 0.32812500
vt 0.75000000 0.50000000
f 332/332 333/333 334/334 335/335
usemtl crystal
v 0.50000000 0.93750000 0.50000000
vt 0.81250000 0.93750000
v 0.58838835 0.70625000 0.41161165
vt 0.87500000 0.70625000
v 0.50000000 0.70625000 0.37500000
vt 0.75000000 0.70625000
f 336/336 337/337 338/338
usemtl crystal
v 0.50000000 0.07500000 0.50000000
vt 0.93750000 0.07500000
v 0.57513010 0.25000000 0.42486990
vt 0.87500000 0.25000000
v 0.60625000 0.25000000 0.50000000
vt 1.00000000 0.25000000
f 339/339 340/340 341/341
usemtl crystal
v 0.62153398 0.50000000 0.37846602
vt 0.87500000 0.50000000
v 0.67187500 0.50000000 0.50000000
vt 1.00000000 0.50000000
v 0.60625000 0.25000000 0.50000000
vt 1.00000000 0.25000000
v 0.57513010 0.25000000 0.42486990
vt 0.87500000 0.25000000
f 342/342 343/343 344/344 345/345
usemtl crystal
v 0.58838835 0.70625000 0.41161165
vt 0.87500000 0.70625000
v 0.62500000 0.70625000 0.50000000
vt 1.00000000 0.70625000
v 0.67187500 0.50000000 0.50000000
vt 1.00000000 0.50000000
v 0.62153398 0.50000000 0.37846602
vt 0.87500000 0.50000000
f 346/346 347/347 348/348 349/349
usemtl crystal
v 0.50000000 0.93750000 0.50000000
vt 0.93750000 0.93750000
v 0.62500000 0.70625000 0.50000000
vt 1.00000000 0.70625000
v 0.58838835 0.70625000 0.41161165
vt 0.87500000 0.70625000
f 350/350 351/351 352/352
